<svg version="1.1" id="Layer_1" xmlns="http://www.w3.org/2000/svg" xmlns:xlink="http://www.w3.org/1999/xlink" x="0px" y="0px"
	 width="100%" viewBox="0 0 512 512" enable-background="new 0 0 512 512" xml:space="preserve">
<path fill="#000000" opacity="1.000000" stroke="none" 
	d="
M304.000000,513.000000 
	C202.691269,513.000000 101.882530,513.000000 1.036899,513.000000 
	C1.036899,342.399567 1.036899,171.799149 1.036899,1.099354 
	C171.558746,1.099354 342.117554,1.099354 512.838196,1.099354 
	C512.838196,171.666550 512.838196,342.333252 512.838196,513.000000 
	C443.465790,513.000000 373.982880,513.000000 304.000000,513.000000 
M386.815521,475.310272 
	C386.868195,474.479675 386.967041,473.649109 386.967102,472.818512 
	C386.977814,326.544373 386.967163,180.270218 387.060608,33.996140 
	C387.063141,29.998672 385.753143,28.911707 381.904205,28.932728 
	C356.915070,29.069193 331.924835,28.998343 306.934937,29.002069 
	C300.011932,29.003103 300.002838,29.013498 300.002625,36.136280 
	C300.000397,108.107170 300.001312,180.078064 299.327209,251.736404 
	C289.804474,226.917938 280.246338,202.112946 270.769928,177.276810 
	C262.897736,156.645035 255.179626,135.954391 247.288452,115.329933 
	C236.943344,88.291840 226.380814,61.336075 216.217102,34.230423 
	C214.725342,30.252008 212.961334,28.884001 208.785431,28.912096 
	C183.130753,29.084721 157.474335,28.998619 131.818497,28.998629 
	C130.362579,28.998629 128.906647,28.998629 126.811928,28.998629 
	C127.046997,33.244663 127.255058,37.002865 127.183441,41.693832 
	C127.131042,42.524418 127.032799,43.355000 127.032738,44.185589 
	C127.022079,189.446121 127.031898,334.706635 126.942780,479.967133 
	C126.940361,483.902100 128.148422,485.093781 132.058197,485.071075 
	C157.044830,484.925995 182.032730,485.001465 207.020203,484.998077 
	C213.988785,484.997131 213.998138,484.987335 213.998413,477.912292 
	C214.001160,404.615692 214.000656,331.319061 214.682678,258.319183 
	C215.919083,261.843353 217.035461,265.415131 218.410568,268.884338 
	C231.188156,301.119843 244.027664,333.330780 256.814911,365.562469 
	C272.118896,404.137878 287.478973,442.691681 302.518280,481.370148 
	C303.841949,484.774475 305.497131,485.029816 308.299286,485.025146 
	C333.097687,484.983887 357.896179,485.001160 382.694641,485.001099 
	C383.986084,485.001099 385.277496,485.001129 387.139130,485.001129 
	C386.914825,481.751770 386.724701,478.997528 386.815521,475.310272 
z"/>
<path fill="#EC0000" opacity="1.000000" stroke="none" 
	d="
M127.463120,40.761066 
	C127.255058,37.002865 127.046997,33.244663 126.811928,28.998629 
	C128.906647,28.998629 130.362579,28.998629 131.818497,28.998629 
	C157.474335,28.998619 183.130753,29.084721 208.785431,28.912096 
	C212.961334,28.884001 214.725342,30.252008 216.217102,34.230423 
	C226.380814,61.336075 236.943344,88.291840 247.288452,115.329933 
	C255.179626,135.954391 262.897736,156.645035 270.769928,177.276810 
	C280.246338,202.112946 289.804474,226.917938 299.656738,252.288147 
	C300.479492,254.759354 300.785095,256.751160 301.493073,258.587860 
	C328.946320,329.808563 356.430817,401.017242 383.959991,472.208618 
	C384.524048,473.667267 385.663544,474.903381 386.534546,476.243317 
	C386.724701,478.997528 386.914825,481.751770 387.139130,485.001129 
	C385.277496,485.001129 383.986084,485.001099 382.694641,485.001099 
	C357.896179,485.001160 333.097687,484.983887 308.299286,485.025146 
	C305.497131,485.029816 303.841949,484.774475 302.518280,481.370148 
	C287.478973,442.691681 272.118896,404.137878 256.814911,365.562469 
	C244.027664,333.330780 231.188156,301.119843 218.410568,268.884338 
	C217.035461,265.415131 215.919083,261.843353 214.314911,257.791199 
	C213.666641,256.311157 213.459396,255.330017 213.095245,254.411072 
	C185.354233,184.407303 157.605286,114.406670 129.814606,44.422619 
	C129.289185,43.099487 128.258209,41.977108 127.463120,40.761066 
z"/>
<path fill="#860000" opacity="1.000000" stroke="none" 
	d="
M386.675049,475.776794 
	C385.663544,474.903381 384.524048,473.667267 383.959991,472.208618 
	C356.430817,401.017242 328.946320,329.808563 301.493073,258.587860 
	C300.785095,256.751160 300.479492,254.759354 299.993835,252.444412 
	C300.001312,180.078064 300.000397,108.107170 300.002625,36.136280 
	C300.002838,29.013498 300.011932,29.003103 306.934937,29.002069 
	C331.924835,28.998343 356.915070,29.069193 381.904205,28.932728 
	C385.753143,28.911707 387.063141,29.998672 387.060608,33.996140 
	C386.967163,180.270218 386.977814,326.544373 386.967102,472.818512 
	C386.967041,473.649109 386.868195,474.479675 386.675049,475.776794 
z"/>
<path fill="#860000" opacity="1.000000" stroke="none" 
	d="
M127.323280,41.227448 
	C128.258209,41.977108 129.289185,43.099487 129.814606,44.422619 
	C157.605286,114.406670 185.354233,184.407303 213.095245,254.411072 
	C213.459396,255.330017 213.666641,256.311157 213.974121,257.642853 
	C214.000656,331.319061 214.001160,404.615692 213.998413,477.912292 
	C213.998138,484.987335 213.988785,484.997131 207.020203,484.998077 
	C182.032730,485.001465 157.044830,484.925995 132.058197,485.071075 
	C128.148422,485.093781 126.940361,483.902100 126.942780,479.967133 
	C127.031898,334.706635 127.022079,189.446121 127.032738,44.185589 
	C127.032799,43.355000 127.131042,42.524418 127.323280,41.227448 
z"/>
</svg>